<svg id="Layer_1" data-name="Layer 1" xmlns="http://www.w3.org/2000/svg" xmlns:xlink="http://www.w3.org/1999/xlink" viewBox="0 0 1000 1000"><defs><style>.cls-1{fill:url(#linear-gradient);}.cls-2{fill:#f77f00;}.cls-3{fill:none;stroke:#efefef;stroke-miterlimit:10;stroke-width:7px;}</style><linearGradient id="linear-gradient" x1="558.93" y1="929.43" x2="558.93" y2="230.01" gradientUnits="userSpaceOnUse"><stop offset="0" stop-color="#fff"/><stop offset="1" stop-color="#e8e8e8"/></linearGradient></defs><path class="cls-1" d="M408.23,885q-85.05-44.43-133.29-124.22T226.69,579.72q0-101.26,48.25-181.07T408.23,274.44q85-44.43,191.1-44.43,97.45,0,173.9,34.4,66.38,29.86,112.59,82.8A21.56,21.56,0,0,1,884,377.48L773.37,476.23a21.47,21.47,0,0,1-30.06-1.38q-57.52-62.34-132.52-62.34-70.71,0-113.7,45.38t-43,121.83q0,76.46,43,121.82t113.7,45.39q75,0,132.52-62.34a21.47,21.47,0,0,1,30.06-1.39L884,782a21.56,21.56,0,0,1,1.82,30.27Q839.61,865.17,773.23,895q-76.46,34.4-173.9,34.4Q493.27,929.43,408.23,885Z"/><path class="cls-2" d="M290.15,544.05a16.85,16.85,0,0,1-16.83-16.83V362h-163a16.83,16.83,0,0,1-16.82-16.82V257.55a16.84,16.84,0,0,1,16.82-16.82h163V75.51a16.84,16.84,0,0,1,16.83-16.82H381.2A16.84,16.84,0,0,1,398,75.51V240.73h164a16.85,16.85,0,0,1,16.83,16.82v87.63A16.84,16.84,0,0,1,562.05,362H398V527.22a16.85,16.85,0,0,1-16.83,16.83Z"/><path class="cls-3" d="M375.69,316.42h-79a15.06,15.06,0,1,1,0-30.11h79a15.06,15.06,0,1,1,0,30.11Z"/></svg>